<svg xmlns="http://www.w3.org/2000/svg" width="39.999" height="39.699" viewBox="0 0 39.999 39.699"><path d="M771.466,241.071a8.166,8.166,0,0,1,5.622,2.146v-1.395h5.194v12.5a1.988,1.988,0,0,0,2.035,2.2c2.2,0,3.909-3,3.909-7.618,0-7.564-6.479-13.841-15.368-13.841a15.827,15.827,0,0,0,.214,31.652,15.8,15.8,0,0,0,11.138-3.97l2.409,3.755a21.5,21.5,0,0,1-13.6,4.239c-12.155,0-20.347-9.12-20.347-19.85s8.139-19.849,20.187-19.849c11.78,0,19.812,8.1,19.812,17.864,0,6.76-3.213,11.856-8.782,11.856a6.133,6.133,0,0,1-5.783-3.111,7.942,7.942,0,0,1-6.64,3.111c-5.623,0-9.049-4.506-9.049-9.818C762.417,245.577,765.843,241.071,771.466,241.071Zm1.071,14.807a5.336,5.336,0,0,0,4.551-2.736v-4.4c-1.232-1.77-2.623-2.736-4.551-2.736-2.785,0-4.5,2.039-4.5,4.935C768.039,253.786,769.752,255.878,772.537,255.878Z" transform="translate(-752.671 -231.039)" fill="#000091"/></svg>